<svg width="640" height="130" viewBox="0 0 640 130" fill="none" xmlns="http://www.w3.org/2000/svg">
<g clip-path="url(#clip0_82_2)">
<path d="M76.1465 93.0898L106.771 41.2939V41.5303H124.496L124.062 41.7559L82.7236 113.016H69.5537L13 17L31.6553 16.8818L76.1465 93.0898ZM113.454 16.7432L113.306 17H113.939C121.733 17 128.561 18.2632 134.407 20.7842C140.254 23.3052 145.15 26.7303 149.096 31.0586C153.041 35.3869 156.011 40.4595 158.005 46.2715L158.01 46.2773C160.003 52.0946 161 58.292 161 64.8691C161 72.1703 159.89 78.7783 157.669 84.6777C155.448 90.5822 152.298 95.6297 148.218 99.8193C144.138 104.009 139.195 107.254 133.395 109.555C127.589 111.85 121.108 113 113.944 113H89.3496L97.1543 99.6143H113.939C119.016 99.6142 123.525 98.7315 127.471 96.9756C131.411 95.2196 134.722 92.7853 137.397 89.6738C140.073 86.5675 142.092 82.8912 143.45 78.6553C144.808 74.4194 145.49 69.9114 145.49 64.8643C145.49 59.8171 144.788 55.1754 143.383 50.9395C141.978 46.7035 139.918 43.0728 137.196 40.0537C134.48 37.0347 131.169 34.668 127.27 32.9531C123.37 31.2434 118.923 30.3858 113.939 30.3857H105.564L76.7842 80.1543L67.7461 65.2646L95.8936 16.7432H113.454Z" fill="url(#paint0_linear_82_2)"></path>
</g>
<path d="M232.504 33.568L213.816 80H205.112L186.424 33.568H194.168C195 33.568 195.672 33.7707 196.184 34.176C196.717 34.56 197.112 35.0613 197.368 35.68L207.416 62.432C207.8 63.4347 208.173 64.5333 208.536 65.728C208.92 66.9013 209.272 68.1387 209.592 69.44C209.869 68.1387 210.168 66.9013 210.488 65.728C210.829 64.5333 211.192 63.4347 211.576 62.432L221.56 35.68C221.773 35.1467 222.147 34.6667 222.68 34.24C223.235 33.792 223.917 33.568 224.728 33.568H232.504Z" fill="#2B3C4B"></path>
<path d="M246.466 80H236.802V33.568H246.466V80Z" fill="#2B3C4B"></path>
<path d="M289.041 41.312H275.473V80H265.841V41.312H252.273V33.568H289.041V41.312Z" fill="#2B3C4B"></path>
<path d="M314.751 62.368L309.727 48.16C309.428 47.4133 309.108 46.5387 308.767 45.536C308.447 44.5333 308.138 43.4453 307.839 42.272C307.54 43.4667 307.22 44.576 306.879 45.6C306.559 46.6027 306.25 47.4773 305.951 48.224L300.959 62.368H314.751ZM330.879 80H323.423C322.591 80 321.908 79.808 321.375 79.424C320.863 79.0187 320.479 78.5067 320.223 77.888L317.087 69.024H298.591L295.455 77.888C295.242 78.4213 294.868 78.912 294.335 79.36C293.802 79.7867 293.13 80 292.319 80H284.799L302.943 33.568H312.767L330.879 80Z" fill="#2B3C4B"></path>
<path d="M389.809 56.768C389.809 60.16 389.233 63.2853 388.081 66.144C386.95 68.9813 385.339 71.424 383.249 73.472C381.179 75.52 378.683 77.12 375.761 78.272C372.838 79.424 369.595 80 366.033 80H348.177V33.568H366.033C369.595 33.568 372.838 34.144 375.761 35.296C378.683 36.448 381.179 38.0587 383.249 40.128C385.339 42.176 386.95 44.6187 388.081 47.456C389.233 50.2933 389.809 53.3973 389.809 56.768ZM379.953 56.768C379.953 54.336 379.633 52.1493 378.993 50.208C378.353 48.2667 377.435 46.624 376.241 45.28C375.046 43.936 373.585 42.9013 371.857 42.176C370.15 41.4507 368.209 41.088 366.033 41.088H357.841V72.48H366.033C368.209 72.48 370.15 72.128 371.857 71.424C373.585 70.6987 375.046 69.664 376.241 68.32C377.435 66.9547 378.353 65.3013 378.993 63.36C379.633 61.4187 379.953 59.2213 379.953 56.768Z" fill="#2B3C4B"></path>
<path d="M415.872 72.32C417.429 72.32 418.827 72.064 420.064 71.552C421.301 71.0187 422.347 70.272 423.2 69.312C424.053 68.352 424.704 67.1893 425.152 65.824C425.6 64.4587 425.824 62.9227 425.824 61.216V33.568H435.424V61.216C435.424 64.032 434.965 66.624 434.048 68.992C433.152 71.3387 431.861 73.3653 430.176 75.072C428.491 76.7787 426.443 78.112 424.032 79.072C421.621 80.032 418.901 80.512 415.872 80.512C412.843 80.512 410.112 80.032 407.68 79.072C405.269 78.112 403.221 76.7787 401.536 75.072C399.851 73.3653 398.549 71.3387 397.632 68.992C396.736 66.624 396.288 64.032 396.288 61.216V33.568H405.888V61.216C405.888 62.9227 406.112 64.4587 406.56 65.824C407.008 67.1893 407.659 68.352 408.512 69.312C409.365 70.272 410.411 71.0187 411.648 71.552C412.885 72.064 414.293 72.32 415.872 72.32Z" fill="#2B3C4B"></path>
<path d="M459.08 55.552C460.637 55.552 461.981 55.36 463.112 54.976C464.242 54.5707 465.17 54.0267 465.896 53.344C466.621 52.64 467.154 51.8187 467.496 50.88C467.837 49.9413 468.008 48.9173 468.008 47.808C468.008 45.6107 467.272 43.904 465.8 42.688C464.349 41.472 462.13 40.864 459.144 40.864H454.152V55.552H459.08ZM481.576 80H472.904C471.282 80 470.109 79.3813 469.384 78.144L460.552 63.904C460.189 63.3493 459.784 62.944 459.336 62.688C458.909 62.432 458.269 62.304 457.416 62.304H454.152V80H444.552V33.568H459.144C462.386 33.568 465.16 33.9093 467.464 34.592C469.768 35.2533 471.656 36.1813 473.128 37.376C474.6 38.5707 475.677 40 476.36 41.664C477.042 43.3067 477.384 45.12 477.384 47.104C477.384 48.64 477.16 50.1013 476.712 51.488C476.285 52.8533 475.656 54.1013 474.824 55.232C473.992 56.3627 472.968 57.3653 471.752 58.24C470.536 59.1147 469.149 59.8187 467.592 60.352C468.21 60.6933 468.786 61.1093 469.32 61.6C469.853 62.0693 470.333 62.6347 470.76 63.296L481.576 80Z" fill="#2B3C4B"></path>
<path d="M510.626 62.368L505.602 48.16C505.303 47.4133 504.983 46.5387 504.642 45.536C504.322 44.5333 504.013 43.4453 503.714 42.272C503.415 43.4667 503.095 44.576 502.754 45.6C502.434 46.6027 502.125 47.4773 501.826 48.224L496.834 62.368H510.626ZM526.754 80H519.298C518.466 80 517.783 79.808 517.25 79.424C516.738 79.0187 516.354 78.5067 516.098 77.888L512.962 69.024H494.466L491.33 77.888C491.117 78.4213 490.743 78.912 490.21 79.36C489.677 79.7867 489.005 80 488.194 80H480.674L498.818 33.568H508.642L526.754 80Z" fill="#2B3C4B"></path>
<path d="M545.58 55.552C547.137 55.552 548.481 55.36 549.612 54.976C550.742 54.5707 551.67 54.0267 552.396 53.344C553.121 52.64 553.654 51.8187 553.996 50.88C554.337 49.9413 554.508 48.9173 554.508 47.808C554.508 45.6107 553.772 43.904 552.3 42.688C550.849 41.472 548.63 40.864 545.644 40.864H540.652V55.552H545.58ZM568.076 80H559.404C557.782 80 556.609 79.3813 555.884 78.144L547.052 63.904C546.689 63.3493 546.284 62.944 545.836 62.688C545.409 62.432 544.769 62.304 543.916 62.304H540.652V80H531.052V33.568H545.644C548.886 33.568 551.66 33.9093 553.964 34.592C556.268 35.2533 558.156 36.1813 559.628 37.376C561.1 38.5707 562.177 40 562.86 41.664C563.542 43.3067 563.884 45.12 563.884 47.104C563.884 48.64 563.66 50.1013 563.212 51.488C562.785 52.8533 562.156 54.1013 561.324 55.232C560.492 56.3627 559.468 57.3653 558.252 58.24C557.036 59.1147 555.649 59.8187 554.092 60.352C554.71 60.6933 555.286 61.1093 555.82 61.6C556.353 62.0693 556.833 62.6347 557.26 63.296L568.076 80Z" fill="#2B3C4B"></path>
<path d="M582.278 41.088V53.024H597.766V60.288H582.278V72.48H602.182V80H572.614V33.568H602.182V41.088H582.278Z" fill="#2B3C4B"></path>
<path d="M206.77 106.921L206.759 109H196.881V93.16H206.759V95.239H199.466V100.013H205.296V102.026H199.466V106.921H206.77Z" fill="#4E5E61"></path>
<path d="M218.55 99.265C218.792 99.0157 219.041 98.792 219.298 98.594C219.562 98.3887 219.841 98.2127 220.134 98.066C220.427 97.9193 220.739 97.8057 221.069 97.725C221.399 97.6443 221.758 97.604 222.147 97.604C222.763 97.604 223.302 97.7067 223.764 97.912C224.233 98.1173 224.626 98.407 224.941 98.781C225.264 99.155 225.506 99.606 225.667 100.134C225.828 100.655 225.909 101.23 225.909 101.861V109H223.555V101.861C223.555 101.106 223.379 100.519 223.027 100.101C222.682 99.683 222.154 99.474 221.443 99.474C220.915 99.474 220.424 99.595 219.969 99.837C219.522 100.079 219.1 100.409 218.704 100.827V109H216.339V97.78H217.769C218.092 97.78 218.297 97.9303 218.385 98.231L218.55 99.265Z" fill="#4E5E61"></path>
<path d="M243.312 100.541C242.982 100.116 242.619 99.8187 242.223 99.65C241.827 99.4813 241.398 99.397 240.936 99.397C240.012 99.397 239.29 99.738 238.769 100.42C238.248 101.095 237.988 102.096 237.988 103.423C237.988 104.112 238.047 104.703 238.164 105.194C238.281 105.678 238.45 106.074 238.67 106.382C238.89 106.69 239.158 106.914 239.473 107.053C239.788 107.192 240.144 107.262 240.54 107.262C241.141 107.262 241.658 107.134 242.091 106.877C242.531 106.613 242.938 106.243 243.312 105.766V100.541ZM245.677 92.72V109H244.247C243.932 109 243.73 108.85 243.642 108.549L243.433 107.328C242.964 107.878 242.428 108.322 241.827 108.659C241.233 108.996 240.54 109.165 239.748 109.165C239.117 109.165 238.545 109.04 238.032 108.791C237.519 108.534 237.079 108.164 236.712 107.68C236.345 107.196 236.059 106.598 235.854 105.887C235.656 105.168 235.557 104.347 235.557 103.423C235.557 102.587 235.667 101.813 235.887 101.102C236.114 100.391 236.437 99.7747 236.855 99.254C237.273 98.726 237.779 98.3153 238.373 98.022C238.974 97.7213 239.645 97.571 240.386 97.571C241.046 97.571 241.607 97.6773 242.069 97.89C242.531 98.0953 242.945 98.385 243.312 98.759V92.72H245.677Z" fill="#4E5E61"></path>
<path d="M265.509 97.78V109H264.079C263.764 109 263.562 108.85 263.474 108.549L263.298 107.504C263.063 107.753 262.814 107.981 262.55 108.186C262.293 108.391 262.018 108.567 261.725 108.714C261.432 108.861 261.116 108.974 260.779 109.055C260.449 109.136 260.093 109.176 259.712 109.176C259.096 109.176 258.553 109.073 258.084 108.868C257.615 108.663 257.219 108.373 256.896 107.999C256.581 107.625 256.342 107.178 256.181 106.657C256.02 106.129 255.939 105.55 255.939 104.919V97.78H258.304V104.919C258.304 105.674 258.476 106.261 258.821 106.679C259.173 107.097 259.705 107.306 260.416 107.306C260.937 107.306 261.421 107.189 261.868 106.954C262.323 106.712 262.748 106.382 263.144 105.964V97.78H265.509Z" fill="#4E5E61"></path>
<path d="M278.094 99.859C278.446 99.1477 278.871 98.5903 279.37 98.187C279.869 97.7763 280.466 97.571 281.163 97.571C281.405 97.571 281.632 97.6003 281.845 97.659C282.058 97.7103 282.248 97.791 282.417 97.901L282.252 99.683C282.223 99.8077 282.175 99.8957 282.109 99.947C282.05 99.991 281.97 100.013 281.867 100.013C281.757 100.013 281.599 99.9947 281.394 99.958C281.189 99.914 280.972 99.892 280.745 99.892C280.415 99.892 280.122 99.9397 279.865 100.035C279.616 100.13 279.388 100.27 279.183 100.453C278.985 100.636 278.809 100.86 278.655 101.124C278.501 101.388 278.358 101.689 278.226 102.026V109H275.861V97.78H277.236C277.485 97.78 277.658 97.8277 277.753 97.923C277.848 98.011 277.914 98.1687 277.951 98.396L278.094 99.859Z" fill="#4E5E61"></path>
<path d="M293.926 97.78V109H291.561V97.78H293.926ZM294.322 94.392C294.322 94.6047 294.278 94.8063 294.19 94.997C294.11 95.1877 293.996 95.3563 293.849 95.503C293.702 95.6423 293.53 95.756 293.332 95.844C293.142 95.9247 292.936 95.965 292.716 95.965C292.504 95.965 292.302 95.9247 292.111 95.844C291.928 95.756 291.767 95.6423 291.627 95.503C291.488 95.3563 291.374 95.1877 291.286 94.997C291.206 94.8063 291.165 94.6047 291.165 94.392C291.165 94.172 291.206 93.9667 291.286 93.776C291.374 93.5853 291.488 93.4203 291.627 93.281C291.767 93.1343 291.928 93.0207 292.111 92.94C292.302 92.852 292.504 92.808 292.716 92.808C292.936 92.808 293.142 92.852 293.332 92.94C293.53 93.0207 293.702 93.1343 293.849 93.281C293.996 93.4203 294.11 93.5853 294.19 93.776C294.278 93.9667 294.322 94.172 294.322 94.392Z" fill="#4E5E61"></path>
<path d="M306.589 99.265C306.831 99.0157 307.08 98.792 307.337 98.594C307.601 98.3887 307.879 98.2127 308.173 98.066C308.466 97.9193 308.778 97.8057 309.108 97.725C309.438 97.6443 309.797 97.604 310.186 97.604C310.802 97.604 311.341 97.7067 311.803 97.912C312.272 98.1173 312.664 98.407 312.98 98.781C313.302 99.155 313.544 99.606 313.706 100.134C313.867 100.655 313.948 101.23 313.948 101.861V109H311.594V101.861C311.594 101.106 311.418 100.519 311.066 100.101C310.721 99.683 310.193 99.474 309.482 99.474C308.954 99.474 308.462 99.595 308.008 99.837C307.56 100.079 307.139 100.409 306.743 100.827V109H304.378V97.78H305.808C306.13 97.78 306.336 97.9303 306.424 98.231L306.589 99.265Z" fill="#4E5E61"></path>
<path d="M328.194 103.291C328.927 103.291 329.477 103.104 329.844 102.73C330.21 102.356 330.394 101.868 330.394 101.267C330.394 100.651 330.21 100.163 329.844 99.804C329.477 99.4447 328.927 99.265 328.194 99.265C327.468 99.265 326.918 99.4447 326.544 99.804C326.177 100.163 325.994 100.651 325.994 101.267C325.994 101.56 326.041 101.832 326.137 102.081C326.232 102.33 326.371 102.547 326.555 102.73C326.738 102.906 326.965 103.045 327.237 103.148C327.515 103.243 327.834 103.291 328.194 103.291ZM331.483 109.55C331.483 109.301 331.409 109.103 331.263 108.956C331.123 108.802 330.933 108.685 330.691 108.604C330.449 108.516 330.166 108.454 329.844 108.417C329.521 108.373 329.176 108.344 328.81 108.329C328.45 108.307 328.08 108.289 327.699 108.274C327.325 108.252 326.962 108.215 326.61 108.164C326.258 108.347 325.968 108.567 325.741 108.824C325.521 109.081 325.411 109.378 325.411 109.715C325.411 109.935 325.466 110.14 325.576 110.331C325.693 110.522 325.869 110.687 326.104 110.826C326.346 110.965 326.65 111.075 327.017 111.156C327.391 111.237 327.838 111.277 328.359 111.277C329.4 111.277 330.181 111.116 330.702 110.793C331.222 110.47 331.483 110.056 331.483 109.55ZM333.859 98.187V99.067C333.859 99.3603 333.683 99.54 333.331 99.606L332.209 99.793C332.399 100.218 332.495 100.691 332.495 101.212C332.495 101.762 332.385 102.261 332.165 102.708C331.952 103.155 331.655 103.537 331.274 103.852C330.892 104.167 330.438 104.409 329.91 104.578C329.382 104.747 328.81 104.831 328.194 104.831C327.959 104.831 327.728 104.82 327.501 104.798C327.281 104.769 327.064 104.732 326.852 104.688C326.639 104.813 326.481 104.945 326.379 105.084C326.276 105.223 326.225 105.366 326.225 105.513C326.225 105.755 326.331 105.935 326.544 106.052C326.756 106.169 327.035 106.254 327.38 106.305C327.732 106.356 328.131 106.389 328.579 106.404C329.026 106.419 329.481 106.444 329.943 106.481C330.405 106.518 330.859 106.58 331.307 106.668C331.754 106.749 332.15 106.888 332.495 107.086C332.847 107.277 333.129 107.537 333.342 107.867C333.554 108.197 333.661 108.626 333.661 109.154C333.661 109.638 333.54 110.111 333.298 110.573C333.056 111.035 332.704 111.446 332.242 111.805C331.787 112.164 331.23 112.45 330.57 112.663C329.91 112.883 329.158 112.993 328.315 112.993C327.479 112.993 326.749 112.912 326.126 112.751C325.51 112.59 324.993 112.37 324.575 112.091C324.164 111.82 323.856 111.504 323.651 111.145C323.453 110.786 323.354 110.412 323.354 110.023C323.354 109.495 323.519 109.044 323.849 108.67C324.186 108.296 324.641 108.003 325.213 107.79C324.905 107.643 324.655 107.442 324.465 107.185C324.281 106.928 324.19 106.591 324.19 106.173C324.19 105.843 324.311 105.498 324.553 105.139C324.795 104.78 325.158 104.475 325.642 104.226C325.084 103.918 324.644 103.511 324.322 103.005C323.999 102.492 323.838 101.894 323.838 101.212C323.838 100.655 323.944 100.152 324.157 99.705C324.377 99.2577 324.681 98.8763 325.07 98.561C325.458 98.2457 325.917 98.0037 326.445 97.835C326.98 97.6663 327.563 97.582 328.194 97.582C329.162 97.582 330.005 97.7837 330.724 98.187H333.859Z" fill="#4E5E61"></path>
<path d="M365.757 106.844V109H356.605V93.16H359.179V106.844H365.757Z" fill="#4E5E61"></path>
<path d="M377.475 97.78V109H375.11V97.78H377.475ZM377.871 94.392C377.871 94.6047 377.827 94.8063 377.739 94.997C377.658 95.1877 377.544 95.3563 377.398 95.503C377.251 95.6423 377.079 95.756 376.881 95.844C376.69 95.9247 376.485 95.965 376.265 95.965C376.052 95.965 375.85 95.9247 375.66 95.844C375.476 95.756 375.315 95.6423 375.176 95.503C375.036 95.3563 374.923 95.1877 374.835 94.997C374.754 94.8063 374.714 94.6047 374.714 94.392C374.714 94.172 374.754 93.9667 374.835 93.776C374.923 93.5853 375.036 93.4203 375.176 93.281C375.315 93.1343 375.476 93.0207 375.66 92.94C375.85 92.852 376.052 92.808 376.265 92.808C376.485 92.808 376.69 92.852 376.881 92.94C377.079 93.0207 377.251 93.1343 377.398 93.281C377.544 93.4203 377.658 93.5853 377.739 93.776C377.827 93.9667 377.871 94.172 377.871 94.392Z" fill="#4E5E61"></path>
<path d="M388.685 109V99.661L387.585 99.507C387.402 99.4703 387.251 99.4043 387.134 99.309C387.024 99.2137 386.969 99.078 386.969 98.902V97.934H388.685V96.988C388.685 96.35 388.777 95.778 388.96 95.272C389.151 94.766 389.418 94.337 389.763 93.985C390.115 93.633 390.54 93.3653 391.039 93.182C391.538 92.9913 392.099 92.896 392.722 92.896C392.979 92.896 393.221 92.9143 393.448 92.951C393.683 92.9877 393.91 93.0427 394.13 93.116L394.086 94.304C394.071 94.502 393.972 94.6193 393.789 94.656C393.613 94.6927 393.389 94.711 393.118 94.711C392.788 94.711 392.491 94.7513 392.227 94.832C391.963 94.9053 391.736 95.0337 391.545 95.217C391.362 95.4003 391.219 95.6423 391.116 95.943C391.021 96.2437 390.973 96.6177 390.973 97.065V97.934H394.042V99.639H391.05V109H388.685Z" fill="#4E5E61"></path>
<path d="M410.242 102.125C410.242 101.729 410.183 101.362 410.066 101.025C409.956 100.68 409.791 100.383 409.571 100.134C409.351 99.8773 409.076 99.6793 408.746 99.54C408.423 99.3933 408.049 99.32 407.624 99.32C406.766 99.32 406.091 99.5657 405.6 100.057C405.108 100.548 404.797 101.238 404.665 102.125H410.242ZM404.599 103.577C404.628 104.215 404.727 104.769 404.896 105.238C405.064 105.7 405.288 106.085 405.567 106.393C405.853 106.701 406.19 106.932 406.579 107.086C406.975 107.233 407.415 107.306 407.899 107.306C408.361 107.306 408.76 107.255 409.098 107.152C409.435 107.042 409.728 106.925 409.978 106.8C410.227 106.668 410.44 106.551 410.616 106.448C410.792 106.338 410.953 106.283 411.1 106.283C411.29 106.283 411.437 106.356 411.54 106.503L412.211 107.372C411.932 107.702 411.617 107.981 411.265 108.208C410.913 108.435 410.539 108.622 410.143 108.769C409.747 108.908 409.34 109.007 408.922 109.066C408.504 109.132 408.097 109.165 407.701 109.165C406.923 109.165 406.201 109.037 405.534 108.78C404.874 108.516 404.298 108.131 403.807 107.625C403.323 107.119 402.941 106.492 402.663 105.744C402.391 104.996 402.256 104.134 402.256 103.159C402.256 102.382 402.377 101.656 402.619 100.981C402.868 100.306 403.22 99.7197 403.675 99.221C404.137 98.7223 404.694 98.33 405.347 98.044C406.007 97.7507 406.751 97.604 407.58 97.604C408.269 97.604 408.907 97.7177 409.494 97.945C410.08 98.165 410.586 98.4913 411.012 98.924C411.437 99.3567 411.767 99.8883 412.002 100.519C412.244 101.142 412.365 101.854 412.365 102.653C412.365 103.02 412.324 103.265 412.244 103.39C412.163 103.515 412.016 103.577 411.804 103.577H404.599Z" fill="#4E5E61"></path>
<path d="M438.837 101.41C438.162 101.806 437.663 102.268 437.341 102.796C437.018 103.324 436.857 103.896 436.857 104.512C436.857 104.945 436.934 105.333 437.088 105.678C437.249 106.015 437.458 106.301 437.715 106.536C437.979 106.771 438.279 106.95 438.617 107.075C438.961 107.2 439.317 107.262 439.684 107.262C440.41 107.262 441.07 107.141 441.664 106.899C442.258 106.65 442.786 106.316 443.248 105.898L438.837 101.41ZM449.243 109H446.944C446.819 109 446.705 108.993 446.603 108.978C446.507 108.963 446.416 108.941 446.328 108.912C446.247 108.875 446.166 108.828 446.086 108.769C446.012 108.71 445.932 108.633 445.844 108.538L444.524 107.196C443.827 107.812 443.035 108.296 442.148 108.648C441.268 109 440.311 109.176 439.277 109.176C438.675 109.176 438.085 109.073 437.506 108.868C436.934 108.663 436.42 108.369 435.966 107.988C435.511 107.599 435.144 107.13 434.866 106.58C434.587 106.023 434.448 105.396 434.448 104.699C434.448 104.193 434.528 103.716 434.69 103.269C434.858 102.822 435.089 102.407 435.383 102.026C435.683 101.637 436.035 101.289 436.439 100.981C436.842 100.673 437.286 100.409 437.77 100.189C437.352 99.6317 437.047 99.089 436.857 98.561C436.666 98.033 436.571 97.4977 436.571 96.955C436.571 96.4123 436.67 95.899 436.868 95.415C437.066 94.931 437.352 94.5093 437.726 94.15C438.107 93.7907 438.565 93.5083 439.101 93.303C439.643 93.0903 440.256 92.984 440.938 92.984C441.554 92.984 442.107 93.0793 442.599 93.27C443.097 93.4607 443.523 93.7173 443.875 94.04C444.234 94.3627 444.513 94.733 444.711 95.151C444.916 95.569 445.037 96.0017 445.074 96.449L443.578 96.757C443.446 96.7863 443.321 96.768 443.204 96.702C443.094 96.636 443.009 96.526 442.951 96.372C442.892 96.1813 442.808 95.9943 442.698 95.811C442.588 95.6203 442.452 95.4517 442.291 95.305C442.129 95.1583 441.935 95.041 441.708 94.953C441.488 94.8577 441.231 94.81 440.938 94.81C440.6 94.81 440.296 94.865 440.025 94.975C439.761 95.085 439.533 95.239 439.343 95.437C439.159 95.6277 439.016 95.8513 438.914 96.108C438.818 96.3647 438.771 96.6397 438.771 96.933C438.771 97.1677 438.796 97.395 438.848 97.615C438.899 97.835 438.983 98.055 439.101 98.275C439.218 98.495 439.365 98.7223 439.541 98.957C439.724 99.1843 439.944 99.43 440.201 99.694L444.568 104.193C444.832 103.709 445.041 103.207 445.195 102.686C445.349 102.158 445.451 101.626 445.503 101.091C445.517 100.937 445.569 100.816 445.657 100.728C445.745 100.633 445.862 100.585 446.009 100.585H447.472C447.464 101.502 447.325 102.385 447.054 103.236C446.79 104.079 446.416 104.864 445.932 105.59L449.243 109Z" fill="#4E5E61"></path>
<path d="M492.286 93.16L487.358 109H485.037L481.319 97.626C481.275 97.5013 481.231 97.3657 481.187 97.219C481.151 97.0723 481.114 96.9147 481.077 96.746C481.041 96.9147 481 97.0723 480.956 97.219C480.92 97.3657 480.879 97.5013 480.835 97.626L477.084 109H474.763L469.835 93.16H471.991C472.211 93.16 472.395 93.215 472.541 93.325C472.695 93.4277 472.798 93.5707 472.849 93.754L475.819 103.907C475.878 104.127 475.933 104.365 475.984 104.622C476.036 104.879 476.087 105.146 476.138 105.425C476.19 105.146 476.245 104.879 476.303 104.622C476.369 104.358 476.439 104.12 476.512 103.907L479.911 93.754C479.963 93.6073 480.065 93.4717 480.219 93.347C480.373 93.2223 480.557 93.16 480.769 93.16H481.517C481.745 93.16 481.928 93.2187 482.067 93.336C482.207 93.446 482.313 93.5853 482.386 93.754L485.774 103.907C485.848 104.12 485.914 104.351 485.972 104.6C486.038 104.842 486.097 105.099 486.148 105.37C486.2 105.099 486.247 104.842 486.291 104.6C486.343 104.351 486.398 104.12 486.456 103.907L489.415 93.754C489.459 93.5927 489.558 93.4533 489.712 93.336C489.874 93.2187 490.061 93.16 490.273 93.16H492.286Z" fill="#4E5E61"></path>
<path d="M507.54 102.125C507.54 101.729 507.482 101.362 507.364 101.025C507.254 100.68 507.089 100.383 506.869 100.134C506.649 99.8773 506.374 99.6793 506.044 99.54C505.721 99.3933 505.347 99.32 504.922 99.32C504.064 99.32 503.389 99.5657 502.898 100.057C502.407 100.548 502.095 101.238 501.963 102.125H507.54ZM501.897 103.577C501.926 104.215 502.025 104.769 502.194 105.238C502.363 105.7 502.586 106.085 502.865 106.393C503.151 106.701 503.488 106.932 503.877 107.086C504.273 107.233 504.713 107.306 505.197 107.306C505.659 107.306 506.059 107.255 506.396 107.152C506.733 107.042 507.027 106.925 507.276 106.8C507.525 106.668 507.738 106.551 507.914 106.448C508.09 106.338 508.251 106.283 508.398 106.283C508.589 106.283 508.736 106.356 508.838 106.503L509.509 107.372C509.23 107.702 508.915 107.981 508.563 108.208C508.211 108.435 507.837 108.622 507.441 108.769C507.045 108.908 506.638 109.007 506.22 109.066C505.802 109.132 505.395 109.165 504.999 109.165C504.222 109.165 503.499 109.037 502.832 108.78C502.172 108.516 501.596 108.131 501.105 107.625C500.621 107.119 500.24 106.492 499.961 105.744C499.69 104.996 499.554 104.134 499.554 103.159C499.554 102.382 499.675 101.656 499.917 100.981C500.166 100.306 500.518 99.7197 500.973 99.221C501.435 98.7223 501.992 98.33 502.645 98.044C503.305 97.7507 504.049 97.604 504.878 97.604C505.567 97.604 506.205 97.7177 506.792 97.945C507.379 98.165 507.885 98.4913 508.31 98.924C508.735 99.3567 509.065 99.8883 509.3 100.519C509.542 101.142 509.663 101.854 509.663 102.653C509.663 103.02 509.623 103.265 509.542 103.39C509.461 103.515 509.315 103.577 509.102 103.577H501.897Z" fill="#4E5E61"></path>
<path d="M521.758 92.72V109H519.393V92.72H521.758Z" fill="#4E5E61"></path>
<path d="M534.566 92.72V109H532.201V92.72H534.566Z" fill="#4E5E61"></path>
<path d="M547.176 99.265C547.418 99.0157 547.667 98.792 547.924 98.594C548.188 98.3887 548.467 98.2127 548.76 98.066C549.053 97.9193 549.365 97.8057 549.695 97.725C550.025 97.6443 550.384 97.604 550.773 97.604C551.389 97.604 551.928 97.7067 552.39 97.912C552.859 98.1173 553.252 98.407 553.567 98.781C553.89 99.155 554.132 99.606 554.293 100.134C554.454 100.655 554.535 101.23 554.535 101.861V109H552.181V101.861C552.181 101.106 552.005 100.519 551.653 100.101C551.308 99.683 550.78 99.474 550.069 99.474C549.541 99.474 549.05 99.595 548.595 99.837C548.148 100.079 547.726 100.409 547.33 100.827V109H544.965V97.78H546.395C546.718 97.78 546.923 97.9303 547.011 98.231L547.176 99.265Z" fill="#4E5E61"></path>
<path d="M572.136 102.125C572.136 101.729 572.077 101.362 571.96 101.025C571.85 100.68 571.685 100.383 571.465 100.134C571.245 99.8773 570.97 99.6793 570.64 99.54C570.317 99.3933 569.943 99.32 569.518 99.32C568.66 99.32 567.985 99.5657 567.494 100.057C567.003 100.548 566.691 101.238 566.559 102.125H572.136ZM566.493 103.577C566.522 104.215 566.621 104.769 566.79 105.238C566.959 105.7 567.182 106.085 567.461 106.393C567.747 106.701 568.084 106.932 568.473 107.086C568.869 107.233 569.309 107.306 569.793 107.306C570.255 107.306 570.655 107.255 570.992 107.152C571.329 107.042 571.623 106.925 571.872 106.8C572.121 106.668 572.334 106.551 572.51 106.448C572.686 106.338 572.847 106.283 572.994 106.283C573.185 106.283 573.331 106.356 573.434 106.503L574.105 107.372C573.826 107.702 573.511 107.981 573.159 108.208C572.807 108.435 572.433 108.622 572.037 108.769C571.641 108.908 571.234 109.007 570.816 109.066C570.398 109.132 569.991 109.165 569.595 109.165C568.818 109.165 568.095 109.037 567.428 108.78C566.768 108.516 566.192 108.131 565.701 107.625C565.217 107.119 564.836 106.492 564.557 105.744C564.286 104.996 564.15 104.134 564.15 103.159C564.15 102.382 564.271 101.656 564.513 100.981C564.762 100.306 565.114 99.7197 565.569 99.221C566.031 98.7223 566.588 98.33 567.241 98.044C567.901 97.7507 568.645 97.604 569.474 97.604C570.163 97.604 570.801 97.7177 571.388 97.945C571.975 98.165 572.481 98.4913 572.906 98.924C573.331 99.3567 573.661 99.8883 573.896 100.519C574.138 101.142 574.259 101.854 574.259 102.653C574.259 103.02 574.219 103.265 574.138 103.39C574.057 103.515 573.911 103.577 573.698 103.577H566.493Z" fill="#4E5E61"></path>
<path d="M590.643 99.815C590.585 99.9177 590.519 99.991 590.445 100.035C590.372 100.079 590.28 100.101 590.17 100.101C590.046 100.101 589.91 100.064 589.763 99.991C589.617 99.9103 589.444 99.8223 589.246 99.727C589.048 99.6317 588.814 99.5473 588.542 99.474C588.278 99.3933 587.967 99.353 587.607 99.353C587.314 99.353 587.046 99.3897 586.804 99.463C586.57 99.529 586.368 99.628 586.199 99.76C586.038 99.8847 585.913 100.035 585.825 100.211C585.737 100.38 585.693 100.563 585.693 100.761C585.693 101.025 585.774 101.245 585.935 101.421C586.097 101.597 586.309 101.751 586.573 101.883C586.837 102.008 587.138 102.121 587.475 102.224C587.813 102.327 588.157 102.437 588.509 102.554C588.861 102.671 589.206 102.807 589.543 102.961C589.881 103.115 590.181 103.306 590.445 103.533C590.709 103.753 590.922 104.024 591.083 104.347C591.245 104.662 591.325 105.047 591.325 105.502C591.325 106.03 591.23 106.518 591.039 106.965C590.849 107.412 590.57 107.801 590.203 108.131C589.837 108.461 589.378 108.718 588.828 108.901C588.286 109.084 587.662 109.176 586.958 109.176C586.57 109.176 586.192 109.139 585.825 109.066C585.466 109 585.121 108.908 584.791 108.791C584.469 108.666 584.164 108.52 583.878 108.351C583.6 108.182 583.35 107.999 583.13 107.801L583.68 106.899C583.746 106.789 583.827 106.705 583.922 106.646C584.025 106.58 584.15 106.547 584.296 106.547C584.45 106.547 584.601 106.598 584.747 106.701C584.901 106.796 585.077 106.903 585.275 107.02C585.481 107.137 585.726 107.247 586.012 107.35C586.298 107.445 586.654 107.493 587.079 107.493C587.431 107.493 587.736 107.453 587.992 107.372C588.249 107.284 588.462 107.167 588.63 107.02C588.799 106.873 588.924 106.708 589.004 106.525C589.085 106.334 589.125 106.133 589.125 105.92C589.125 105.634 589.045 105.399 588.883 105.216C588.722 105.033 588.506 104.875 588.234 104.743C587.97 104.611 587.666 104.494 587.321 104.391C586.984 104.288 586.639 104.178 586.287 104.061C585.935 103.944 585.587 103.808 585.242 103.654C584.905 103.5 584.601 103.306 584.329 103.071C584.065 102.829 583.853 102.539 583.691 102.202C583.53 101.857 583.449 101.439 583.449 100.948C583.449 100.501 583.537 100.075 583.713 99.672C583.897 99.2687 584.161 98.913 584.505 98.605C584.857 98.297 585.286 98.055 585.792 97.879C586.306 97.6957 586.896 97.604 587.563 97.604C588.319 97.604 589.004 97.725 589.62 97.967C590.236 98.209 590.753 98.539 591.171 98.957L590.643 99.815Z" fill="#4E5E61"></path>
<path d="M607.727 99.815C607.668 99.9177 607.602 99.991 607.529 100.035C607.456 100.079 607.364 100.101 607.254 100.101C607.129 100.101 606.994 100.064 606.847 99.991C606.7 99.9103 606.528 99.8223 606.33 99.727C606.132 99.6317 605.897 99.5473 605.626 99.474C605.362 99.3933 605.05 99.353 604.691 99.353C604.398 99.353 604.13 99.3897 603.888 99.463C603.653 99.529 603.452 99.628 603.283 99.76C603.122 99.8847 602.997 100.035 602.909 100.211C602.821 100.38 602.777 100.563 602.777 100.761C602.777 101.025 602.858 101.245 603.019 101.421C603.18 101.597 603.393 101.751 603.657 101.883C603.921 102.008 604.222 102.121 604.559 102.224C604.896 102.327 605.241 102.437 605.593 102.554C605.945 102.671 606.29 102.807 606.627 102.961C606.964 103.115 607.265 103.306 607.529 103.533C607.793 103.753 608.006 104.024 608.167 104.347C608.328 104.662 608.409 105.047 608.409 105.502C608.409 106.03 608.314 106.518 608.123 106.965C607.932 107.412 607.654 107.801 607.287 108.131C606.92 108.461 606.462 108.718 605.912 108.901C605.369 109.084 604.746 109.176 604.042 109.176C603.653 109.176 603.276 109.139 602.909 109.066C602.55 109 602.205 108.908 601.875 108.791C601.552 108.666 601.248 108.52 600.962 108.351C600.683 108.182 600.434 107.999 600.214 107.801L600.764 106.899C600.83 106.789 600.911 106.705 601.006 106.646C601.109 106.58 601.233 106.547 601.38 106.547C601.534 106.547 601.684 106.598 601.831 106.701C601.985 106.796 602.161 106.903 602.359 107.02C602.564 107.137 602.81 107.247 603.096 107.35C603.382 107.445 603.738 107.493 604.163 107.493C604.515 107.493 604.819 107.453 605.076 107.372C605.333 107.284 605.545 107.167 605.714 107.02C605.883 106.873 606.007 106.708 606.088 106.525C606.169 106.334 606.209 106.133 606.209 105.92C606.209 105.634 606.128 105.399 605.967 105.216C605.806 105.033 605.589 104.875 605.318 104.743C605.054 104.611 604.75 104.494 604.405 104.391C604.068 104.288 603.723 104.178 603.371 104.061C603.019 103.944 602.671 103.808 602.326 103.654C601.989 103.5 601.684 103.306 601.413 103.071C601.149 102.829 600.936 102.539 600.775 102.202C600.614 101.857 600.533 101.439 600.533 100.948C600.533 100.501 600.621 100.075 600.797 99.672C600.98 99.2687 601.244 98.913 601.589 98.605C601.941 98.297 602.37 98.055 602.876 97.879C603.389 97.6957 603.98 97.604 604.647 97.604C605.402 97.604 606.088 97.725 606.704 97.967C607.32 98.209 607.837 98.539 608.255 98.957L607.727 99.815Z" fill="#4E5E61"></path>
<path d="M612.384 34.7355H610.213V40.568H608.671V34.7355H606.5V33.568H612.384V34.7355Z" fill="#2B3C4B"></path>
<path d="M621.5 33.568V40.568H620.143V36.2696C620.143 36.1795 620.145 36.083 620.148 35.9801C620.155 35.8772 620.165 35.7727 620.179 35.6665L618.053 39.4632C617.937 39.6723 617.758 39.7768 617.516 39.7768H617.301C617.181 39.7768 617.075 39.7511 616.983 39.6996C616.891 39.645 616.818 39.5662 616.763 39.4632L614.627 35.6521C614.638 35.7646 614.646 35.874 614.653 35.9801C614.66 36.083 614.663 36.1795 614.663 36.2696V40.568H613.306V33.568H614.474C614.539 33.568 614.597 33.5696 614.648 33.5728C614.699 33.576 614.743 33.5857 614.781 33.6018C614.822 33.6146 614.858 33.6371 614.889 33.6693C614.923 33.6982 614.955 33.7401 614.986 33.7947L617.065 37.5287C617.13 37.6413 617.19 37.7571 617.244 37.8761C617.302 37.9951 617.357 38.1173 617.408 38.2427C617.459 38.1141 617.512 37.9886 617.567 37.8664C617.625 37.7442 617.686 37.6268 617.751 37.5142L619.815 33.7947C619.846 33.7401 619.878 33.6982 619.912 33.6693C619.947 33.6371 619.982 33.6146 620.02 33.6018C620.061 33.5857 620.105 33.576 620.153 33.5728C620.204 33.5696 620.264 33.568 620.332 33.568H621.5Z" fill="#2B3C4B"></path>
<defs>
<linearGradient id="paint0_linear_82_2" x1="13.062" y1="55.2367" x2="187.04" y2="56.2743" gradientUnits="userSpaceOnUse">
<stop stop-color="#0C3C78"></stop>
<stop offset="1" stop-color="#2EB67D"></stop>
</linearGradient>
<clipPath id="clip0_82_2">
<rect width="148" height="96" fill="white" transform="translate(13 17)"></rect>
</clipPath>
</defs>
</svg>